<svg width="281" height="329" viewBox="0 0 281 329" fill="none" xmlns="http://www.w3.org/2000/svg">
<path fill-rule="evenodd" clip-rule="evenodd" d="M238 1.181C236.625 1.756 232.8 3.484 229.5 5.021C220.041 9.427 219.814 9.435 216.004 5.504C214.136 3.577 212.28 2 211.88 2C211.48 2 207.265 4.362 202.513 7.25C197.761 10.138 191.989 13.566 189.687 14.868C187.384 16.171 182.518 19.386 178.873 22.013C172.268 26.773 172.224 26.788 165.772 26.27L159.297 25.75L153.532 30.971C150.361 33.842 145.9 37.386 143.617 38.846C134.606 44.609 132.294 47.02 128.587 54.521C126.49 58.764 123.574 62.994 121.886 64.243C119.617 65.92 119.033 66.996 119.463 68.709C119.867 70.317 119.432 71.329 117.946 72.232C116.801 72.93 113.926 76.2 111.559 79.5C109.191 82.8 105.36 87.451 103.045 89.835C100.731 92.219 99.029 94.362 99.264 94.597C99.499 94.832 101.68 94.144 104.112 93.069C106.544 91.993 111.642 90.616 115.442 90.009C119.242 89.402 124.854 88.061 127.913 87.028C131.867 85.693 133.841 85.453 134.738 86.197C137.485 88.477 135.712 89.934 126.25 93.168C117.575 96.133 115.315 96.5 105.752 96.5C99.841 96.5 95.004 96.462 95.002 96.416C95.001 96.37 98.872 89.17 103.605 80.416C112.662 63.664 123 43.431 123 42.458C123 41.644 84.208 42.596 80.113 43.511C77.342 44.13 75.344 43.616 69.113 40.681C59.46 36.133 46.177 30.41 43.25 29.536C41.005 28.867 41 28.894 41 40.717V52.569L44.06 54.376C50.138 57.967 50.514 63.869 45 69.115C42.8 71.208 41 73.314 41 73.796C41 74.278 42.8 76.288 45 78.263C48.219 81.152 49 82.536 49 85.349C49 88.189 48.251 89.486 45 92.268C41.284 95.449 41 96.061 41 100.898C41 105.751 41.198 106.173 43.919 107.122C47.415 108.34 50.062 113.336 49.297 117.273C48.74 120.139 44.762 124 42.365 124C41.333 124 41 125.829 41 131.5C41 137.29 41.322 139 42.411 139C44.961 139 49 144.899 49 148.622C49 152.336 45.407 157 42.545 157C41.313 157 41 158.292 41 163.382C41 169.495 41.169 169.934 45 173.765C50.15 178.915 50.416 182.875 45.894 187.099C44.186 188.694 42.386 190 41.894 190C41.402 190 41 192.67 41 195.933C41 200.961 41.301 201.961 42.974 202.492C45.92 203.427 49 207.878 49 211.201C49 215.203 47.494 217.693 43.97 219.515C39.492 221.831 39.87 226.005 45 230.885C47.976 233.716 49 235.478 49 237.767C49 240.12 48.058 241.65 45 244.268L41 247.692V265.63V283.569L45.25 285.202C47.588 286.1 54.675 289.156 61 291.992C67.325 294.829 83.075 301.581 96 306.996C108.925 312.412 122.65 318.268 126.5 320.009C145.884 328.774 152.302 329.912 161.522 326.22C166.842 324.09 180.602 316.872 222 294.496C271.201 267.903 275.116 265.426 278.674 258.629C280.521 255.1 279.743 249.983 276.98 247.482C275.439 246.087 275 244.401 275 239.871C275 234.416 275.188 233.954 278 232.5L281 230.949L280.978 146.224C280.953 50.969 281.493 57.821 273.36 49.597C266.7 42.862 263.714 42.049 245.5 42.008C236.7 41.989 228.458 41.694 227.184 41.352L224.867 40.732L227.777 37.616C231.874 33.227 235.267 27.283 234.09 26.555C233.553 26.224 236.757 22.443 241.21 18.155C250.059 9.632 250.443 8.376 245.949 2.662C243.718 -0.173996 242.004 -0.493996 238 1.181ZM243.813 7.25C244.007 8.269 243.538 9 242.688 9C241.886 9 240.475 10.153 239.551 11.562C238.628 12.971 237.339 13.932 236.686 13.697C235.104 13.128 231.806 14.877 232.462 15.938C233.013 16.829 227.018 18.065 225.75 17.322C225.338 17.08 225 16.046 225 15.024C225 13.754 227.295 11.893 232.25 9.144C239.888 4.905 243.261 4.353 243.813 7.25ZM207.886 16.109C203.209 19.683 183.249 32 182.134 32C178.428 32 182.995 28.526 200.974 17.672C208.114 13.361 212.898 12.28 207.886 16.109ZM220 19.27C220 19.969 214.6 24.291 208 28.876C201.4 33.461 196 37.4 196 37.631C196 38.773 209.997 30.247 217.315 24.648C220.128 22.496 221.423 22.023 222.248 22.848C223.61 24.21 225.016 23.016 209.5 33.677C189.994 47.081 188.079 48.452 188.038 49.049C187.983 49.847 213.065 74.369 215.868 76.258C217.875 77.611 218.358 79.048 219.031 85.677C220.138 96.574 223.829 110.429 232.09 134.691C238.212 152.675 239.248 156.74 239.717 164.632C240.35 175.27 238.504 182.832 233.845 188.695C230.81 192.514 230.014 195.063 232.5 193C233.806 191.916 234.003 192.578 234.024 198.128C234.037 201.632 234.465 206.3 234.975 208.5C235.957 212.735 235.699 213.398 230.739 219.406C228.518 222.096 227.719 222.347 219.963 222.796L211.586 223.281L214.293 220.064C215.782 218.294 217 215.941 217 214.834C217 212.927 216.845 212.953 214.031 215.32C207.571 220.756 196.965 222.574 180.597 221.051C174.065 220.443 168.568 220.099 168.381 220.285C168.195 220.472 171.436 222.441 175.585 224.662L183.128 228.699L177.977 230.915C161.231 238.119 143.77 234.767 129.453 221.6L123.5 216.125L129 217.551C136.197 219.416 144.819 219.372 155.128 217.416C167.534 215.063 167.723 214.128 155.669 214.743C145.637 215.255 144.477 215.111 137.931 212.542C129.785 209.347 129.863 208.854 139.247 204.203C143.136 202.275 148.524 200.656 153.5 199.918C157.9 199.265 161.856 198.414 162.29 198.026C162.725 197.637 158.547 196.523 153.005 195.55L142.93 193.78L145.504 190.406C149.382 185.321 152.828 177.223 153.541 171.516C154.156 166.599 152.381 157.73 150.042 154.034C148.408 151.451 150.872 149.999 156.872 150.01C170.412 150.033 182.912 161.911 182.978 174.816C183.003 179.661 181.922 182.249 178.212 186.228L175.668 188.955L178.707 188.084C180.379 187.605 182.855 186.486 184.211 185.597C186.567 184.054 186.862 184.118 190.903 187.045C193.228 188.729 196.072 191.702 197.221 193.651C199.016 196.693 199.445 196.955 200.256 195.508C200.774 194.581 200.995 192.755 200.746 191.45C200.312 189.18 200.479 189.104 204.646 189.675C210.424 190.467 210.209 188.976 204.061 185.63C191.897 179.009 184.713 162.152 187.967 147.868C189.541 140.96 196.622 126.378 199.321 124.487C201.127 123.223 201.462 121.753 201.822 113.52C202.155 105.912 201.913 103.516 200.61 101.527C199.034 99.123 199.064 99.022 201.537 98.401C202.943 98.048 204.376 98.043 204.722 98.388C205.068 98.734 206.132 102.051 207.087 105.759L208.824 112.5L208.912 107.197C208.99 102.469 206.401 88 205.477 88C205.278 88 203.626 88.863 201.807 89.918C199.988 90.973 195.463 92.151 191.75 92.535C188.037 92.919 185 93.686 185 94.24C185 94.849 182.842 95.069 179.548 94.796C175.535 94.463 172.526 93.374 168.147 90.672C162.651 87.279 161.615 87 154.534 87C144.736 87 143 86.1 143 81.022C143 74.746 144.849 74.053 159.861 74.701C169.967 75.138 173.202 74.938 176 73.705L179.5 72.163L175.576 72.082L171.651 72L173.677 69.75C176.716 66.374 177.377 64.918 175.552 65.618C174.439 66.046 173.958 65.548 173.852 63.857C173.771 62.561 173.658 60.753 173.602 59.84C173.433 57.096 172.614 57.005 168.782 59.304C166.77 60.512 162.686 62.958 159.707 64.74C156.729 66.522 151.342 69.09 147.737 70.447C142.297 72.495 141.087 72.67 140.63 71.479C140.002 69.842 143.925 67.036 187.91 37.649C204.085 26.842 217.922 18 218.66 18C219.397 18 220 18.572 220 19.27ZM23.325 28.459C18.104 30.731 16.633 34.079 16.166 44.757L15.752 54.224L10.399 56.675C4.225 59.502 0.999999 63.071 0.999999 67.079C0.999999 70.847 4.741 74.98 9.016 75.935C12.494 76.713 12.496 76.716 10 77.76C6.586 79.189 1.275 84.945 0.512999 88.043C-0.664001 92.827 6.668 99 13.525 99C15.941 99 16.094 99.276 15.807 103.107C15.512 107.059 15.296 107.295 10.088 109.383C4.438 111.648 1.539 114.609 0.437999 119.243C-0.0980013 121.502 0.404999 122.605 3.293 125.493C5.293 127.493 7.81 129.006 9.15 129.014C15.211 129.049 16.117 129.898 15.798 135.246L15.5 140.233L10.275 142.177C4.128 144.464 0.999999 147.978 0.999999 152.596C0.999999 157.652 7.09 161.972 14.25 161.994C15.698 161.999 16 162.923 16 167.342V172.683L11.983 173.887C3.791 176.341 -1.195 183.284 1.301 188.761C2.634 191.687 8.826 195 12.96 195C15.905 195 16 195.143 16 199.594C16 203.386 15.642 204.281 13.947 204.724C4.704 207.141 -1.349 214.328 1.026 220.063C2.388 223.35 4.399 224.726 10.476 226.528L14.452 227.707L9.884 229.727C5.389 231.716 1.902 235.436 0.599999 239.635C-0.899001 244.471 4.585 250.107 12.156 251.51L15.812 252.187L16.162 265.844C16.443 276.818 16.856 280.01 18.27 282.096C20.496 285.382 24.028 287 28.976 287C34.253 287 36 284.993 36 278.929V274H31.5H27V258V242H32C37.942 242 41 239.617 41 234.985C41 232.657 40.26 231.519 37.75 229.989C35.962 228.899 33.128 228.006 31.45 228.004C27.841 227.999 26 226.438 26 223.382C26 218.988 27.01 218 31.501 218C34.852 218 36.467 217.366 38.894 215.099C40.602 213.503 42 211.286 42 210.171C42 206.81 37.385 204 31.865 204H27V195V186H31.76C35.472 186 37.124 185.441 39.26 183.46C42.351 180.594 42.462 180.108 40.841 176.55C39.645 173.925 35.016 172.016 29.821 172.006L27.142 172L26.821 162.998L26.5 153.995L31.168 153.998C37.316 154.001 38.769 153.347 40.633 149.743C43.508 144.184 39.343 140 30.935 140H27V130.5V121H31.813C35.857 121 37.086 120.52 39.504 117.995C41.973 115.419 42.247 114.603 41.425 112.267C40.22 108.842 36.717 107.034 31.25 107.015L27 107V98.5V90H31.813C35.821 90 37.092 89.514 39.41 87.094C41.477 84.936 42.016 83.625 41.501 82.002C40.689 79.446 33.873 76.054 29.483 76.022C26.651 76.001 26.46 75.754 26.361 72L26.256 68H31.454C35.594 68 37.094 67.529 38.826 65.686C43.345 60.875 39.888 55.371 32 54.817L27.5 54.5V46.5V38.5L31.75 38.193L36 37.885V33.049C36 29.563 35.559 28.045 34.418 27.607C31.798 26.601 26.695 26.993 23.325 28.459ZM170.623 36.205C172.481 37.301 173.991 38.491 173.98 38.849C173.957 39.556 161.469 49 160.557 49C160.25 49 160 48.1 160 47C160 43.93 158.781 44.621 155.5 49.552C152.469 54.107 149.612 55.655 145.984 54.706C144.423 54.298 144 54.686 144 56.527C144 58.874 136.589 66 134.147 66C132.352 66 132.738 64.559 136.619 56.767C139.904 50.169 140.882 49.094 147.245 45.088C151.099 42.662 156.266 38.933 158.728 36.803C163.561 32.619 164.468 32.574 170.623 36.205ZM67.5 48.374C75.517 51.715 77.563 52.983 77.82 54.771C77.995 55.997 77.967 57 77.757 57C77.547 57 73.381 55.65 68.5 54C63.619 52.35 59.259 51 58.812 51C58.366 51 58 65.448 58 83.107C58 113.297 58.104 115.17 59.75 114.482C65.878 111.919 74.532 109.821 81 109.33C101.452 107.778 125.561 121.322 133.963 139.085C135.633 142.613 136.998 145.95 136.998 146.5C136.998 147.05 134.411 147.526 131.249 147.559C125.175 147.621 118 149.527 118 151.078C118 151.585 119.658 152 121.684 152C136.345 152 148.847 162.483 146.387 172.713C144.293 181.419 134.999 191.312 124.398 196.119C107.615 203.729 92.557 201.941 77.662 190.572C75.098 188.615 73 187.287 73 187.623C73 188.837 80.214 198.023 82.71 199.987C86.095 202.649 84.652 202.526 76.369 199.446C69.642 196.944 60.006 191.236 60.002 189.75C60.001 189.338 59.55 189 59 189C58.383 189 58.017 193.888 58.044 201.75L58.087 214.5L71.021 224.5C78.134 230 86.89 236.041 90.477 237.924C97.811 241.774 98.576 243.714 95.025 249.459C93.012 252.716 85.808 257.202 80.629 258.422C79.05 258.794 77.131 259.726 76.365 260.493C75.173 261.685 74.139 261.333 69.235 258.066C66.081 255.964 62.643 253.29 61.595 252.122C60.547 250.955 59.31 250 58.845 250C58.38 250 58 255.625 58 262.5C58 269.375 57.698 275 57.329 275C56.96 275 55.835 274.255 54.829 273.345C53.095 271.776 53 268.502 53 210.241V148.793L56.528 151.89C64.848 159.196 75.479 162.437 88.985 161.787C102.15 161.153 104.483 159.703 94.887 158.118C70.172 154.037 53.683 141.985 52.996 127.5C52.892 125.3 52.85 105.357 52.903 83.183L53 42.865L55.25 43.536C56.487 43.905 62 46.082 67.5 48.374ZM259.908 53.171C261.782 54.452 264.257 56.77 265.408 58.322C267.461 61.092 267.506 62.167 267.824 115.822C268.002 145.895 267.84 180.93 267.464 193.678L266.781 216.856L241.64 229.328C227.813 236.187 214.25 242.823 211.5 244.074C191.813 253.028 161.191 268.444 147.862 276.11L131.989 285.24L125.745 282.928C122.31 281.657 117.25 279.562 114.5 278.274C109.813 276.077 109.719 275.963 113 276.452C114.925 276.739 120.014 277.971 124.309 279.19C130.091 280.832 132.557 281.133 133.809 280.352C141.846 275.337 157.934 266.51 169.5 260.771C177.2 256.949 186.2 252.459 189.5 250.792C192.8 249.125 204.36 243.58 215.19 238.47C226.019 233.36 236.995 227.723 239.581 225.944L244.283 222.709L243.604 208.987C242.961 195.989 243.059 194.866 245.463 187.706C247.321 182.17 247.999 178.054 247.997 172.324C247.993 164.072 247.155 160.466 238.506 131.5C229.448 101.165 227.004 90.933 227.04 83.5L227.074 76.5L215.898 65.936L204.723 55.372L207.784 53.436C210.535 51.696 213.157 51.467 233.673 51.171C256.194 50.846 256.546 50.873 259.908 53.171ZM28.875 60.625C30.995 61.049 32 61.833 32 63.062C32 64.566 31.419 64.78 28.584 64.32C26.705 64.015 22.152 64.291 18.467 64.932C14.781 65.574 11.508 65.841 11.193 65.526C9.934 64.267 13.967 61.832 18.597 61.057C25.362 59.923 25.366 59.923 28.875 60.625ZM134.96 73.452C135.623 74.251 136.015 75.63 135.833 76.517C135.547 77.904 135.185 77.835 133.25 76.026C132.012 74.869 131 73.49 131 72.961C131 71.494 133.603 71.817 134.96 73.452ZM126.818 77.416C128.717 80.634 128.727 82 126.854 82C126.407 82 125.122 80.2 124 78C122.384 74.833 122.255 74 123.381 74C124.163 74 125.71 75.537 126.818 77.416ZM121.025 78.565C122.582 82.662 120.722 85 115.906 85C111.523 85 111.519 84.902 115.698 79.25C118.598 75.329 119.739 75.183 121.025 78.565ZM119 79.941C119 80.459 119.445 81.157 119.989 81.493C120.555 81.843 120.723 81.442 120.382 80.552C119.717 78.82 119 78.503 119 79.941ZM32.792 84.142C33.053 85.513 31.822 85.877 25.302 86.349C21.011 86.661 15.813 87.209 13.75 87.567C11.509 87.956 10 87.822 10 87.232C10 84.281 17.181 82.075 25.99 82.32C31.122 82.462 32.545 82.843 32.792 84.142ZM32.308 114.36C32.702 115.386 30.822 116.012 24.665 116.907C20.174 117.559 15.262 118.349 13.75 118.663C9.135 119.62 10.342 116.4 15.25 114.662C20.814 112.693 31.595 112.502 32.308 114.36ZM215.22 134C214.551 136.475 213.563 140.525 213.026 143C210.682 153.795 212.773 151.496 215.455 140.329C217.382 132.305 217.176 126.767 215.22 134ZM32.5 148C32.5 149.133 30.788 149.647 25.5 150.101C21.65 150.432 16.864 151.035 14.865 151.441C10.578 152.312 8.844 150.689 12.164 148.912C16.238 146.732 19.449 146.129 26 146.315C31.029 146.458 32.5 146.839 32.5 148ZM29.875 178.625C35.45 179.74 33.534 181.726 26.25 182.383C22.538 182.717 17.363 183.263 14.75 183.596C11.736 183.98 10 183.821 10 183.16C10 181.723 10.979 181.231 17.144 179.573C23.294 177.918 25.514 177.753 29.875 178.625ZM222.383 186.006C220.797 189.896 217.819 195.312 215.765 198.04C213.711 200.768 212.267 203 212.555 203C214.685 203 220.836 198.655 221.847 196.437C223.251 193.356 226.239 179.906 225.651 179.317C225.439 179.106 223.969 182.116 222.383 186.006ZM72.128 208.372C73.983 209.127 78.537 210.252 82.25 210.872C102.712 214.291 101.953 214.069 104.423 217.371C107.922 222.048 110.118 226.809 109.074 227.454C108.568 227.767 105.934 228.444 103.22 228.958C97.482 230.046 90.604 228.589 83.849 224.855C78.614 221.961 65.651 207 68.378 207C68.586 207 70.273 207.617 72.128 208.372ZM32.5 212C32.5 213.097 30.89 213.667 26.5 214.123C23.2 214.466 18.077 215.098 15.115 215.529C10.7 216.17 9.811 216.057 10.181 214.905C11.443 210.973 32.5 208.232 32.5 212ZM264.445 229.25C264.174 229.938 260.288 232.188 255.811 234.251C251.333 236.315 247.925 238.258 248.238 238.571C248.55 238.884 250.537 238.259 252.653 237.182C254.769 236.105 258.188 234.76 260.25 234.193C263.501 233.299 263.997 233.384 263.974 234.831C263.948 236.483 255.244 242.373 240.946 250.411C228.855 257.209 234.262 255.494 249.428 247.722L264 240.253V243.113C264 245.638 263.047 246.527 255.874 250.695C246.247 256.289 247.084 257.78 256.943 252.599C260.71 250.62 264.064 249 264.396 249C265.781 249 264.862 254.813 263.25 256.244C262.288 257.099 250.25 263.858 236.5 271.265C222.75 278.672 206.1 287.647 199.5 291.211C178.246 302.687 159 312.069 159 310.955C159 310.358 161.28 307.649 164.067 304.935C166.853 302.221 168.86 300 168.527 300C168.193 300 166.138 300.909 163.96 302.02C158.619 304.745 158.932 302.831 164.449 299.035C171.023 294.512 171.14 293.233 164.658 296.743C161.546 298.429 158.746 299.398 158.436 298.897C158.127 298.396 158.614 297.701 159.52 297.354C160.701 296.901 160.829 296.513 159.973 295.983C159.199 295.505 160.314 294.326 163.139 292.632C168.139 289.636 167.648 289.452 160.047 291.475C157.047 292.273 154.424 292.758 154.218 292.551C153.696 292.029 162.412 287 163.838 287C164.477 287 165 286.55 165 286C165 284.583 164.707 284.66 157.32 288.009C150.579 291.065 147.253 291.472 152.907 288.548C154.608 287.668 156 286.591 156 286.155C156 285.718 158.363 284.105 161.25 282.57C166.029 280.03 165.756 279.632 160.5 281.474C159.4 281.86 170.65 275.884 185.5 268.195C200.35 260.506 223.75 248.324 237.5 241.124C251.25 233.925 263.048 228.027 263.719 228.017C264.389 228.008 264.716 228.563 264.445 229.25ZM32.363 235.042C33.764 236.315 31.991 238.132 29.973 237.491C28.95 237.167 24.405 237.605 19.871 238.465C11.019 240.144 7.956 239.386 12.244 236.576C16.642 233.694 29.777 232.693 32.363 235.042ZM226.5 240C226.16 240.55 225.432 241 224.882 241C224.332 241 224.16 240.55 224.5 240C224.84 239.45 225.568 239 226.118 239C226.668 239 226.84 239.45 226.5 240ZM221 242.419C221 243.081 206.198 250.935 185 261.521C168.193 269.914 153.637 277.577 140 285.212C137.623 286.544 137.141 286.644 138.5 285.525C142.324 282.374 158.684 273.493 189.5 257.839C222.823 240.911 221 241.803 221 242.419ZM240.5 259.482C237.2 261.384 234.828 262.953 235.228 262.97C236.618 263.028 247 257.579 247 256.792C247 255.703 247.207 255.618 240.5 259.482ZM199.5 271.821C178.888 282.484 169.87 287.901 177.667 284.936C182.484 283.105 215 265.197 215 264.376C215 263.791 215.329 263.633 199.5 271.821ZM100.792 287.06C110.398 290.877 118.537 293.99 118.878 293.978C120.5 293.92 113.705 289.65 106.744 286.353C102.478 284.332 99.136 282.53 99.318 282.349C99.696 281.971 118.374 288.231 131 292.967C152.932 301.194 152 300.46 152 309.502C152 316.165 153.374 316.227 135.5 308.755C128.9 305.995 112.763 299.337 99.639 293.958C86.516 288.58 75.289 283.689 74.689 283.089C73.113 281.513 76.619 281.68 82.544 283.463C88.831 285.355 89.452 284.72 83.528 282.458C78.254 280.444 76.15 278.319 80.514 279.414C82.061 279.802 91.186 283.243 100.792 287.06ZM184.75 289.572C181.012 291.6 181.239 292.445 185 290.5C186.65 289.647 188 288.735 188 288.474C188 287.831 187.893 287.867 184.75 289.572Z" fill="black"/>
</svg>
